<?xml version="1.0" encoding="utf-8"?>
<!-- Generator: Adobe Illustrator 28.3.0, SVG Export Plug-In . SVG Version: 6.00 Build 0)  -->
<svg version="1.1" id="Capa_1" xmlns="http://www.w3.org/2000/svg" xmlns:xlink="http://www.w3.org/1999/xlink" x="0px" y="0px"
	 viewBox="0 0 300 300" style="enable-background:new 0 0 300 300;" xml:space="preserve">
<style type="text/css">
	.st0{fill:#FDEC09;}
	.st1{fill:#E52127;}
</style>
<rect class="st0" width="300" height="300"/>
<g>
	<g>
		<path class="st1" d="M186.3,113.2h-73.5c-20.3,0-36.7,16.4-36.7,36.7s16.4,36.7,36.7,36.7h73.5c20.3,0,36.7-16.4,36.7-36.7
			S206.5,113.2,186.3,113.2z"/>
		<path class="st0" d="M186.3,116.1c17,0,30.9,15.1,30.9,33.8s-13.8,33.8-30.9,33.8h-73.6c-17,0-30.9-15.1-30.9-33.8
			s13.8-33.8,30.9-33.8H186.3z"/>
	</g>
	<g id="XMLID_00000128446324390117802350000014938978448635200439_">
		<g id="XMLID_00000107585013316900481770000011552782053849262978_">
			<path id="XMLID_00000175308826089530979070000001607777892741547195_" class="st1" d="M121.7,134.4c-1.4-1.4-3.2-2.2-5.2-2.2
				h-1.1c-1.9,0-3.8,0.8-5.2,2.2c-1.4,1.3-2.2,3.1-2.2,5.1v20.7c0,1.9,0.8,3.8,2.2,5.1s3.2,2.2,5.2,2.2h1.1c4.1,0,7.3-3.2,7.3-7.2
				v-20.7C123.8,137.5,123.1,135.8,121.7,134.4L121.7,134.4z M117.3,160.4c0,0.8-0.5,1.3-1.3,1.3l0,0c-0.8,0-1.3-0.5-1.3-1.3v-21
				c0-0.6,0.5-1.3,1.3-1.3l0,0c0.8,0,1.3,0.5,1.3,1.3V160.4L117.3,160.4z"/>
		</g>
		<g id="XMLID_00000065033550408245884370000005929648053429203075_">
			<path id="XMLID_00000103970202216246170330000010904513063500048295_" class="st1" d="M153.5,160.4c0,0.4-0.2,0.9-0.5,1.2
				s-0.8,0.5-1.2,0.5l0,0c-0.4,0-0.9-0.2-1.3-0.5c-0.3-0.3-0.5-0.8-0.5-1.2v-27.5h-6.1v27.4c0,1.9,0.8,3.7,2.2,5.1
				c1.4,1.3,3.2,2.2,5.2,2.2h1.1c4.1,0,7.3-3.2,7.3-7.2v-27.4h-6.1L153.5,160.4L153.5,160.4z"/>
		</g>
		<g id="XMLID_00000144320329867031413270000000751336311089041539_">
			<polygon id="XMLID_00000047772091160458660110000011182938374375833259_" class="st1" points="127.4,132.8 127.4,138.1 
				135,138.1 135.6,138.1 135.4,138.7 126.7,158.6 126.7,166.6 140.5,166.6 140.5,161.7 133.2,161.7 132.6,161.7 132.8,161.1 
				140.9,141.6 140.9,132.8 			"/>
		</g>
		<g id="XMLID_00000090983329181829380970000011055559343920529072_">
			<polygon id="XMLID_00000025415097081502367840000006860868690624018583_" class="st1" points="162.9,132.8 162.9,166.6 
				176.4,166.6 176.4,161.4 169.9,161.4 169.5,161.4 169.5,160.9 169.5,152.5 169.5,152.1 169.9,152.1 174.2,152.1 174.2,146.9 
				169.9,146.9 169.5,146.9 169.5,146.5 169.5,138.2 169.5,137.8 169.9,137.8 176.4,137.8 176.4,132.8 			"/>
		</g>
		<g id="XMLID_00000044159264536063409260000007872036873895960716_">
			<polygon id="XMLID_00000073706263042446102260000007432929879112762519_" class="st1" points="185.9,161.7 185.3,161.7 
				185.3,161.3 185.3,132.8 179,132.8 179,166.6 191.3,166.6 191.3,161.7 			"/>
		</g>
		<g id="XMLID_00000031908521649695606960000016196980605846334655_">
			<path id="XMLID_00000042713837477912787690000004040409047169827210_" class="st1" d="M103.7,134.5c-1.2-1.1-2.7-1.7-4.3-1.7H90
				v33.8h6.3v-13.1v-0.4h0.4h2.7c3.3,0,6-2.7,6-5.9v-8.4C105.4,137.1,104.8,135.7,103.7,134.5L103.7,134.5z M99.1,146.2
				c0,0.6-0.6,1.3-1.3,1.3h-1.1v-9.4h1.1c0.8,0,1.3,0.5,1.3,1.3V146.2L99.1,146.2z"/>
		</g>
		<g id="XMLID_00000060009061595777198610000014683407391850737846_">
			<path id="XMLID_00000068655528029942877480000006268165393658457525_" class="st1" d="M206.8,134.4c-1.4-1.4-3.2-2.2-5.2-2.2
				h-1.2c-1.9,0-3.8,0.8-5.2,2.2c-1.4,1.3-2.2,3.1-2.2,5.1v20.7c0,1.9,0.8,3.8,2.2,5.1s3.2,2.2,5.2,2.2h1.2c4.1,0,7.3-3.2,7.3-7.2
				v-20.7C209,137.5,208.2,135.8,206.8,134.4L206.8,134.4z M202.4,160.4c0,0.8-0.6,1.3-1.3,1.3l0,0c-0.8,0-1.3-0.5-1.3-1.3v-21
				c0-0.6,0.5-1.3,1.3-1.3l0,0c0.8,0,1.3,0.5,1.3,1.3V160.4L202.4,160.4z"/>
		</g>
	</g>
</g>
</svg>
