<?xml version="1.0" encoding="utf-8"?>
<!-- Generator: Adobe Illustrator 28.3.0, SVG Export Plug-In . SVG Version: 6.00 Build 0)  -->
<svg version="1.1" id="Capa_1" xmlns="http://www.w3.org/2000/svg" xmlns:xlink="http://www.w3.org/1999/xlink" x="0px" y="0px"
	 viewBox="0 0 283 44.5" style="enable-background:new 0 0 283 44.5;" xml:space="preserve">
<style type="text/css">
	.st0{fill:#E52127;}
	.st1{fill:#FDEC09;}
</style>
<g>
	<g>
		<g>
			<g>
				<path class="st0" d="M66.1,0H22C9.8,0,0,9.9,0,22.1s9.8,22,22,22h44.1c12.2,0,22-9.8,22-22S78.2,0,66.1,0z"/>
				<path class="st1" d="M66.1,1.8c10.2,0,18.5,9.1,18.5,20.3s-8.3,20.3-18.5,20.3H21.9c-10.2,0-18.5-9.1-18.5-20.3
					S11.7,1.8,21.9,1.8H66.1z"/>
			</g>
			<g id="XMLID_00000128446324390117802350000014938978448635200439_">
				<g id="XMLID_00000107585013316900481770000011552782053849262978_">
					<path id="XMLID_00000175308826089530979070000001607777892741547195_" class="st0" d="M27.3,12.8c-0.8-0.8-1.9-1.3-3.1-1.3
						h-0.6c-1.2,0-2.3,0.5-3.1,1.3c-0.8,0.8-1.3,1.9-1.3,3v12.4c0,1.2,0.5,2.3,1.3,3s1.9,1.3,3.1,1.3h0.6c2.5,0,4.4-1.9,4.4-4.3
						V15.8C28.6,14.7,28.1,13.6,27.3,12.8L27.3,12.8z M24.6,28.4c0,0.5-0.3,0.8-0.8,0.8l0,0c-0.5,0-0.8-0.3-0.8-0.8V15.8
						c0-0.4,0.3-0.8,0.8-0.8l0,0c0.5,0,0.8,0.3,0.8,0.8V28.4L24.6,28.4z"/>
				</g>
				<g id="XMLID_00000065033550408245884370000005929648053429203075_">
					<path id="XMLID_00000103970202216246170330000010904513063500048295_" class="st0" d="M46.4,28.4c0,0.3-0.1,0.5-0.3,0.7
						c-0.2,0.2-0.5,0.3-0.7,0.3l0,0c-0.3,0-0.5-0.1-0.8-0.3c-0.2-0.2-0.3-0.5-0.3-0.7V11.9h-3.7v16.4c0,1.2,0.5,2.2,1.3,3
						c0.8,0.8,1.9,1.3,3.1,1.3h0.6c2.5,0,4.4-1.9,4.4-4.3V11.9h-3.7L46.4,28.4L46.4,28.4z"/>
				</g>
				<g id="XMLID_00000144320329867031413270000000751336311089041539_">
					<polygon id="XMLID_00000047772091160458660110000011182938374375833259_" class="st0" points="30.7,11.8 30.7,15 35.2,15 
						35.6,15 35.5,15.4 30.3,27.3 30.3,32.1 38.5,32.1 38.5,29.2 34.2,29.2 33.8,29.2 33.9,28.8 38.8,17.1 38.8,11.8 					"/>
				</g>
				<g id="XMLID_00000090983329181829380970000011055559343920529072_">
					<polygon id="XMLID_00000025415097081502367840000006860868690624018583_" class="st0" points="52,11.8 52,32.1 60.1,32.1 
						60.1,29 56.2,29 56,29 56,28.7 56,23.7 56,23.4 56.2,23.4 58.8,23.4 58.8,20.3 56.2,20.3 56,20.3 56,20.1 56,15.1 56,14.8 
						56.2,14.8 60.1,14.8 60.1,11.8 					"/>
				</g>
				<g id="XMLID_00000044159264536063409260000007872036873895960716_">
					<polygon id="XMLID_00000073706263042446102260000007432929879112762519_" class="st0" points="65.8,29.2 65.5,29.2 65.5,28.9 
						65.5,11.8 61.7,11.8 61.7,32.1 69,32.1 69,29.2 					"/>
				</g>
				<g id="XMLID_00000031908521649695606960000016196980605846334655_">
					<path id="XMLID_00000042713837477912787690000004040409047169827210_" class="st0" d="M16.5,12.9c-0.7-0.6-1.6-1-2.6-1H8.2
						v20.3H12v-7.8V24h0.3h1.6c2,0,3.6-1.6,3.6-3.6v-5C17.5,14.4,17.1,13.6,16.5,12.9L16.5,12.9z M13.7,19.9c0,0.4-0.4,0.8-0.8,0.8
						h-0.6V15H13c0.5,0,0.8,0.3,0.8,0.8V19.9L13.7,19.9z"/>
				</g>
				<g id="XMLID_00000060009061595777198610000014683407391850737846_">
					<path id="XMLID_00000068655528029942877480000006268165393658457525_" class="st0" d="M78.4,12.8c-0.8-0.8-1.9-1.3-3.1-1.3
						h-0.7c-1.2,0-2.3,0.5-3.1,1.3c-0.8,0.8-1.3,1.9-1.3,3v12.4c0,1.2,0.5,2.3,1.3,3s1.9,1.3,3.1,1.3h0.7c2.5,0,4.4-1.9,4.4-4.3
						V15.8C79.7,14.7,79.2,13.6,78.4,12.8L78.4,12.8z M75.7,28.4c0,0.5-0.4,0.8-0.8,0.8l0,0c-0.5,0-0.8-0.3-0.8-0.8V15.8
						c0-0.4,0.3-0.8,0.8-0.8l0,0c0.5,0,0.8,0.3,0.8,0.8V28.4L75.7,28.4z"/>
				</g>
			</g>
		</g>
	</g>
</g>
<g>
	<path class="st0" d="M109,15.4v5.9h5.7v1.5H109v6h-1.6v-6h-5.7v-1.5h5.7v-5.9H109z"/>
</g>
<g id="Logo_-_Propelland_Black_00000161603209153204553340000007150454301760863626_">
	<g>
		<path class="st0" d="M224,10.6v19.9h0.2c1.4-0.1,2.6-1.2,2.6-2.7V7.9h-0.1C225.2,7.9,224,9.1,224,10.6"/>
		<path class="st0" d="M218.1,10.6v19.9h0.2c1.4-0.1,2.6-1.2,2.6-2.7V7.9h-0.1C219.4,7.9,218.1,9.1,218.1,10.6"/>
		<path class="st0" d="M211.8,26.1c-1.7,1.6-4.2,1.5-4.2,1.5c-1.6,0-3-0.5-4.1-1.6c-1.1-1.1-1.7-2.5-1.7-4c0-1.6,0.5-3,1.7-4
			c1.1-1.1,2.5-1.6,4.1-1.6c1.6,0,3,0.5,4.1,1.6c0.8,0.8,1.3,1.6,1.6,2.7h-5.8c-0.3,0-0.6,0.1-0.9,0.2c-0.1,0.1-0.3,0.1-0.5,0.3
			c-0.8,0.5-1.3,1.4-1.3,2.4h11.3c0.1-0.5,0.1-0.9,0.1-1.4c0-2.4-0.8-4.4-2.5-6c-1.7-1.6-3.8-2.5-6.2-2.5s-4.5,0.8-6.1,2.5
			c-1.7,1.7-2.5,3.6-2.5,6s0.8,4.4,2.5,6c1.7,1.6,3.8,2.5,6.2,2.5c5.3,0.1,7.9-4.4,7.9-4.4S213.5,24.6,211.8,26.1"/>
		<path class="st0" d="M141.9,13.6c-2.4,0-4.4,0.8-6,2.5c-1.6,1.6-2.5,3.6-2.5,6v14.1h0.1c1.5,0,2.7-1.2,2.7-2.7v-5.1
			c1.6,1.4,3.5,2.1,5.6,2.1c2.4,0,4.4-0.8,6-2.5c1.6-1.6,2.5-3.6,2.5-6s-0.8-4.4-2.5-6C146.3,14.4,144.2,13.6,141.9,13.6
			 M145.9,26.1c-1.1,1.1-2.5,1.6-4,1.6c-1.6,0-3-0.5-4-1.6c-1.1-1.1-1.6-2.5-1.6-4c0-1.6,0.5-2.9,1.6-4s2.5-1.6,4-1.6
			c1.6,0,3,0.5,4,1.6c1.1,1.1,1.6,2.5,1.6,4C147.5,23.7,147,25,145.9,26.1"/>
		<path class="st0" d="M255.9,13.6c-2.4,0-4.4,0.8-6,2.5c-1.6,1.6-2.5,3.6-2.5,6v8.5h0.1c1.5,0,2.7-1.2,2.7-2.7v-5.8
			c0-1.6,0.5-2.9,1.6-4c1.1-1.1,2.5-1.6,4-1.6s3,0.5,4,1.6c1.1,1.1,1.6,2.5,1.6,4v8.5h0.1c1.5,0,2.7-1.2,2.7-2.7v-5.8
			c0-2.4-0.8-4.4-2.5-6C260.3,14.4,258.3,13.6,255.9,13.6"/>
		<path class="st0" d="M188.8,13.6c-2.4,0-4.4,0.8-6,2.5c-1.6,1.6-2.5,3.6-2.5,6v14.1h0.1c1.5,0,2.7-1.2,2.7-2.7v-5.1
			c1.6,1.4,3.5,2.1,5.6,2.1c2.4,0,4.4-0.8,6-2.5c1.6-1.6,2.5-3.6,2.5-6s-0.8-4.4-2.5-6C193.2,14.4,191.2,13.6,188.8,13.6
			 M192.8,26.1c-1.1,1.1-2.5,1.6-4,1.6c-1.6,0-3-0.5-4-1.6c-1.1-1.1-1.6-2.5-1.6-4c0-1.6,0.5-2.9,1.6-4s2.4-1.6,4-1.6
			c1.6,0,3,0.5,4,1.6c1.1,1.1,1.6,2.5,1.6,4C194.4,23.6,193.9,25,192.8,26.1"/>
		<path class="st0" d="M282.9,7.9c-1.5,0-2.7,1.2-2.7,2.7v5.2c-1.6-1.4-3.5-2.1-5.6-2.1c-2.4,0-4.4,0.8-6,2.5
			c-1.6,1.6-2.5,3.6-2.5,6s0.8,4.4,2.5,6c1.6,1.6,3.6,2.5,6,2.5s4.4-0.8,6-2.5c1.6-1.6,2.5-3.6,2.5-6V7.9H282.9 M278.5,26.1
			c-1.1,1.1-2.5,1.6-4,1.6s-3-0.5-4-1.6c-1.1-1.1-1.6-2.5-1.6-4c0-1.6,0.5-2.9,1.6-4c1.1-1.1,2.5-1.6,4-1.6s3,0.5,4,1.6
			c1.1,1.1,1.6,2.5,1.6,4C280.2,23.7,279.6,25,278.5,26.1"/>
		<path class="st0" d="M237.2,13.6c-2.4,0-4.4,0.8-6,2.5s-2.5,3.6-2.5,6s0.8,4.4,2.5,6c1.6,1.6,3.6,2.5,6,2.5c2.2,0,4-0.7,5.6-2.1
			v2.1h0.1c1.5,0,2.7-1.2,2.7-2.7v-5.8c0-2.4-0.8-4.4-2.5-6C241.6,14.4,239.6,13.6,237.2,13.6 M241.2,26.1c-1.1,1.1-2.5,1.6-4,1.6
			c-1.6,0-3-0.5-4-1.6c-1.1-1.1-1.6-2.5-1.6-4c0-1.6,0.5-2.9,1.6-4s2.5-1.6,4-1.6c1.6,0,3,0.5,4,1.6c1.1,1.1,1.6,2.5,1.6,4
			C242.8,23.7,242.3,25,241.2,26.1"/>
		<path class="st0" d="M170.2,13.6c-2.4,0-4.4,0.8-6,2.5s-2.5,3.6-2.5,6s0.8,4.4,2.5,6c1.6,1.6,3.6,2.5,6,2.5c2.3,0,4.4-0.8,6-2.5
			c1.6-1.6,2.5-3.6,2.5-6s-0.8-4.4-2.5-6C174.6,14.4,172.6,13.6,170.2,13.6 M174.2,26.1c-1.1,1.1-2.5,1.6-4,1.6c-1.6,0-3-0.5-4-1.6
			c-1.1-1.1-1.6-2.5-1.6-4c0-1.6,0.5-2.9,1.6-4s2.5-1.6,4-1.6c1.6,0,3,0.5,4,1.6c1.1,1.1,1.6,2.5,1.6,4
			C175.9,23.6,175.3,25,174.2,26.1"/>
		<path class="st0" d="M163.2,13.6h-2.7c-0.3,0-0.5,0-0.6,0c-0.1,0-0.3,0-0.5,0.1h-0.1c-0.2,0-0.4,0.1-0.6,0.1
			c-0.3,0.1-0.4,0.1-0.6,0.1c-0.1,0-0.1,0.1-0.3,0.1c-1.2,0.4-2.3,1.1-3.3,2.1c-1.6,1.7-2.5,3.7-2.5,6v8.5h0.1
			c1.5,0,2.7-1.2,2.7-2.7l0,0v-5.8c0-1.6,0.5-2.9,1.6-4s2.5-1.6,4-1.6h0.1c1.4-0.1,2.5-1.1,2.6-2.4c0-0.1,0-0.1,0-0.2l0,0v-0.1
			C163.2,13.6,163.2,13.6,163.2,13.6 M158.1,14c0,0,0.1-0.1,0.3-0.1C158.2,14,158.1,14,158.1,14"/>
		<path class="st0" d="M255.9,13.6c-2.4,0-4.4,0.8-6,2.5c-1.6,1.7-2.5,3.6-2.5,6v3v5.4c1.6,0.1,2.8-1.2,2.8-2.7v-0.2v-5.6
			c0-1.6,0.5-2.9,1.6-4c1.1-1.1,2.4-1.6,4-1.6s3,0.5,4,1.6c1.1,1.1,1.6,2.4,1.6,4v3v5.5h0.1c1.5,0,2.7-1.2,2.7-2.7v-0.2v-5.7
			c0-2.4-0.8-4.4-2.5-6C260.3,14.4,258.3,13.6,255.9,13.6"/>
	</g>
</g>
</svg>
